<svg width="79" height="80" viewBox="0 0 79 80" fill="none" xmlns="http://www.w3.org/2000/svg">
<path fill-rule="evenodd" clip-rule="evenodd" d="M13.4851 62.2726C10.9786 62.2726 8.94699 64.3042 8.94699 66.8107C8.94699 69.3169 10.9786 71.3485 13.4851 71.3485C15.9913 71.3485 18.0232 69.3169 18.0232 66.8107C18.0232 64.3042 15.9913 62.2726 13.4851 62.2726ZM63.4738 7.49749C60.9673 7.49183 58.9313 9.51927 58.9256 12.0257C58.9202 14.5319 60.9476 16.568 63.4538 16.5737C65.9603 16.5791 67.9963 14.5519 68.0018 12.0454C68.0018 12.0422 68.0018 12.0388 68.0018 12.0356C68.0018 9.53308 65.976 7.50292 63.4738 7.49749ZM30.6444 25.8187V31.3797C30.6444 32.2132 31.3204 32.8891 32.1539 32.8891H77.0582C77.8934 32.8891 78.5721 32.2149 78.5776 31.3797V25.8187C78.5721 24.9835 77.8934 24.3092 77.0582 24.3092H32.1539C31.3204 24.3092 30.6444 24.9852 30.6444 25.8187ZM47.9231 51.4584V45.9174C47.9231 45.0837 47.2473 44.4079 46.4136 44.4079H1.50925C0.675735 44.4079 0 45.0837 0 45.9174V51.4584C0 52.2921 0.675735 52.9679 1.50925 52.9679H46.4136C47.2473 52.9679 47.9231 52.2921 47.9231 51.4584ZM78.2398 43.9809C77.997 43.6698 77.639 43.4694 77.2468 43.425L71.7357 42.859C70.9219 42.7656 70.1855 43.3469 70.0871 44.1597C67.7668 61.3841 51.923 73.4659 34.699 71.1456C32.3107 70.8241 29.9674 70.229 27.7152 69.3726C26.9554 69.0728 26.0965 69.4404 25.7885 70.1967L23.6536 75.3107C23.4946 75.6852 23.4946 76.1082 23.6536 76.4827C23.8109 76.8643 24.1203 77.1631 24.5076 77.3068C45.1223 85.2613 68.2823 74.9981 76.237 54.3834C77.3876 51.4017 78.1767 48.2927 78.5874 45.1231C78.636 44.7107 78.51 44.2967 78.2398 43.9809ZM0.317527 31.2308C0.104526 30.8827 0.0436364 30.4628 0.148904 30.0689C4.67737 12.3701 20.6275 -0.00730843 38.8964 4.34168e-05C43.3692 -0.00656885 47.8109 0.742137 52.0342 2.21465C52.8176 2.46512 53.2498 3.30356 52.9991 4.08703C52.9867 4.12549 52.9729 4.16345 52.9577 4.20068L50.9716 9.38418C50.6916 10.1521 49.8452 10.5507 49.0748 10.2778C45.7886 9.1554 42.3392 8.58493 38.8666 8.58986C31.6806 8.55584 24.7048 11.012 19.1254 15.541C13.896 19.7756 10.1533 25.5673 8.44038 32.0746C8.26879 32.7351 7.67293 33.1963 6.99079 33.1968C6.87542 33.2114 6.75856 33.2114 6.64319 33.1968L1.24102 31.9654C0.845097 31.8582 0.511051 31.5922 0.317527 31.2308Z" fill="#52BD94"/>
</svg>
